<?xml version="1.0" ?><!DOCTYPE svg  PUBLIC '-//W3C//DTD SVG 1.1//EN'  'http://www.w3.org/Graphics/SVG/1.1/DTD/svg11.dtd'><svg height="64px" id="icons" style="enable-background:new 0 0 64 64;" version="1.1" viewBox="0 0 64 64" width="64px" xml:space="preserve" xmlns="http://www.w3.org/2000/svg" xmlns:xlink="http://www.w3.org/1999/xlink"><style type="text/css"><![CDATA[
	.st0{fill:#465860;}
	.st1{fill:none;}
]]></style><g><path class="st0" d="M51.406,17h-4.568l-3.494-6H20.836l-3.518,6h-4.725C8.406,17,5,20.399,5,24.652v20.574    C5,49.479,8.406,53,12.594,53h7.788c-1.784-1-3.31-3-4.507-5h-3.281C11.163,48,10,46.723,10,45.227V24.652    C10,23.156,11.163,22,12.594,22h7.574l3.518-6h16.799l3.494,6h7.428C52.837,22,54,23.156,54,24.652v20.574    C54,46.723,52.837,48,51.406,48h-3.28c-1.197,2-2.723,4-4.506,5h7.786C55.594,53,59,49.479,59,45.227V24.652    C59,20.399,55.594,17,51.406,17z"/><path class="st0" d="M32.002,53C23.729,53,17,46.271,17,38.001C17,29.729,23.729,23,32.002,23C40.271,23,47,29.729,47,38.001    C47,46.271,40.271,53,32.002,53z M32.002,27.8c-5.625,0-10.202,4.576-10.202,10.201c0,5.624,4.577,10.198,10.202,10.198    c5.623,0,10.197-4.574,10.197-10.198C42.199,32.376,37.625,27.8,32.002,27.8z"/><rect class="st1" height="64" width="64"/></g></svg>