<?xml version="1.0" ?><!DOCTYPE svg  PUBLIC '-//W3C//DTD SVG 1.1//EN'  'http://www.w3.org/Graphics/SVG/1.1/DTD/svg11.dtd'><svg enable-background="new 0 0 24 24" height="24px" id="Layer_1" version="1.1" viewBox="0 0 24 24" width="24px" xml:space="preserve" xmlns="http://www.w3.org/2000/svg" xmlns:xlink="http://www.w3.org/1999/xlink"><g><path d="M16.3,14.4c-0.1-0.1-0.1-0.2-0.1-0.4c0-0.2,0-0.4,0-0.6v-2.8c0-0.2,0-0.4,0-0.6c0-0.1,0-0.2,0.1-0.4L19,6.4   c0.3-0.3,0.4-0.6,0.4-0.9c0-0.2,0-0.4-0.2-0.6c-0.2-0.2-0.4-0.2-0.5-0.2c-0.3,0-0.6,0.1-0.8,0.4l-3.5,2.7c-0.1,0.1-0.2,0.1-0.4,0.1   c-0.2,0-0.4-0.1-0.6-0.1h-2.8c-0.1,0-0.3,0-0.5,0.1c-0.1,0-0.3,0-0.4-0.1L6.3,5.1C6,4.8,5.7,4.7,5.4,4.7c-0.2,0-0.4,0-0.6,0.2   C4.7,5.1,4.6,5.3,4.6,5.5c0,0.3,0.2,0.6,0.4,0.8l2.7,3.4c0.1,0.1,0.1,0.3,0.1,0.4c0,0.2-0.1,0.4-0.1,0.6v2.8c0,0.2,0,0.3,0.1,0.6   c0,0.1,0,0.2-0.1,0.4L5,17.8c-0.3,0.3-0.4,0.6-0.4,0.9c0,0.2,0,0.4,0.2,0.6c0.2,0.2,0.4,0.2,0.6,0.2c0.3,0,0.6-0.1,0.8-0.4l3.5-2.7   c0.1-0.1,0.2-0.1,0.4-0.1c0.2,0,0.4,0.1,0.5,0.1h2.8c0.2,0,0.4,0,0.6-0.1c0,0,0.1,0,0.1,0c0.1,0,0.2,0,0.3,0.1l3.4,2.7   c0.3,0.3,0.6,0.4,0.9,0.4c0.1,0,0.4,0,0.5-0.2c0.2-0.2,0.2-0.4,0.2-0.6c0-0.3-0.2-0.6-0.4-0.8L16.3,14.4z M16.9,6.4   c0.2-0.2,0.5-0.2,0.6,0l0.2,0.2c0.2,0.2,0.2,0.5,0,0.6c-0.1,0.1-0.2,0.1-0.3,0.1c-0.1,0-0.3,0-0.3-0.1L16.9,7   C16.7,6.8,16.7,6.6,16.9,6.4z M7.2,7L7,7.2C6.9,7.3,6.8,7.3,6.7,7.3c-0.1,0-0.2,0-0.3-0.1C6.2,7,6.2,6.8,6.4,6.6l0.2-0.2   c0.2-0.2,0.5-0.2,0.7,0C7.3,6.6,7.3,6.8,7.2,7z M7.2,17.8c-0.1,0.1-0.2,0.1-0.3,0.1c-0.1,0-0.2,0-0.3-0.1l-0.2-0.2   c-0.2-0.2-0.2-0.5,0-0.6c0.2-0.2,0.5-0.2,0.6,0l0.2,0.2C7.3,17.3,7.3,17.6,7.2,17.8z M17.7,17.6l-0.2,0.2c-0.1,0.1-0.2,0.1-0.3,0.1   c-0.1,0-0.2,0-0.3-0.1c-0.2-0.2-0.2-0.5,0-0.7l0.2-0.2c0.2-0.2,0.4-0.2,0.6,0C17.9,17.1,17.9,17.4,17.7,17.6z"/><path d="M5,8.8V8C3.4,8,2.1,6.7,2.1,5.1c0-1.6,1.3-2.9,2.9-2.9c1.6,0,2.9,1.3,2.9,2.9h0.9C8.8,3,7.1,1.3,5,1.3   C2.9,1.3,1.2,3,1.2,5.1C1.2,7.2,2.9,8.8,5,8.8z"/><path d="M19,15.3v0.9c1.6,0,2.9,1.3,2.9,2.9c0,1.6-1.3,2.9-2.9,2.9c-1.6,0-2.9-1.3-2.9-2.9h-0.9c0,2.1,1.7,3.8,3.8,3.8   s3.8-1.7,3.8-3.8C22.8,17,21.1,15.3,19,15.3z"/><path d="M5,21.9c-1.6,0-2.9-1.3-2.9-2.9c0-1.6,1.3-2.9,2.9-2.9v-0.9c-2.1,0-3.8,1.7-3.8,3.8c0,2.1,1.7,3.8,3.8,3.8   c2.1,0,3.8-1.7,3.8-3.8H7.9C7.9,20.7,6.6,21.9,5,21.9z"/><path d="M19,2.2c1.6,0,2.9,1.3,2.9,2.9C21.9,6.7,20.6,8,19,8v0.9c2.1,0,3.8-1.7,3.8-3.8c0-2.1-1.7-3.8-3.8-3.8S15.2,3,15.2,5.1h0.9   C16.2,3.5,17.5,2.2,19,2.2z"/></g></svg>