<?xml version="1.0" ?><!DOCTYPE svg  PUBLIC '-//W3C//DTD SVG 1.1//EN'  'http://www.w3.org/Graphics/SVG/1.1/DTD/svg11.dtd'><svg height="64px" id="icons" style="enable-background:new 0 0 64 64;" version="1.1" viewBox="0 0 64 64" width="64px" xml:space="preserve" xmlns="http://www.w3.org/2000/svg" xmlns:xlink="http://www.w3.org/1999/xlink"><style type="text/css"><![CDATA[
	.st0{fill:#465860;}
	.st1{fill:none;}
]]></style><g><g><path class="st0" d="M58.902,25c-0.433,0-0.863,0.086-1.28,0.257L51,27.968V27.5c0-4.142-3.357-7.5-7.5-7.5h-2.598l-2.811-8.302     C37.748,10.683,36.796,10,35.724,10H11v5h22.931l3.388,10H43.5c1.381,0,2.5,1.119,2.5,2.5v20c0,1.381-1.119,2.5-2.5,2.5h-32     C10.119,50,9,48.881,9,47.5v-20c0-1.381,1.119-2.5,2.5-2.5h20.538l-1.694-5H11.5C7.357,20,4,23.358,4,27.5v20     c0,4.142,3.357,7.5,7.5,7.5h32c4.143,0,7.5-3.358,7.5-7.5v-1.468l6.623,2.712C58.039,48.914,58.47,49,58.902,49     C60.64,49,62,47.61,62,45.835v-17.67C62,26.39,60.64,25,58.902,25z M57,43.12l-6-2.458v-7.324l6-2.458V43.12z"/><rect class="st0" height="5" width="23" x="16" y="39"/></g><rect class="st1" height="64" width="64"/></g></svg>