<?xml version="1.0" ?><svg enable-background="new 0 0 64 64" version="1.1" viewBox="0 0 64 64" xml:space="preserve" xmlns="http://www.w3.org/2000/svg" xmlns:xlink="http://www.w3.org/1999/xlink"><g id="Flat_copy_2"><g><g><rect fill="#FFFFFF" height="49" width="63" x="0.49" y="10.5"/></g><g><path d="M62.99,11v48h-62V11H62.99 M63.99,10h-64v50h64V10L63.99,10z" fill="#EFEFEF"/></g></g><g><g><path d="M63.99,10V7c0-1.65-1.35-3-3-3h-58c-1.65,0-3,1.35-3,3v3H63.99z" fill="#3B3B3B"/></g><g><g><circle cx="4.01" cy="7" fill="#999999" r="0.85"/></g><g><circle cx="6.57" cy="7" fill="#999999" r="0.85"/></g><g><circle cx="9.14" cy="7" fill="#999999" r="0.85"/></g></g><g><path d="M55.49,8.5h-37c-0.82,0-1.5-0.67-1.5-1.5v0c0-0.82,0.67-1.5,1.5-1.5h37c0.83,0,1.5,0.67,1.5,1.5v0     C56.99,7.83,56.31,8.5,55.49,8.5z" fill="#FFFFFF"/></g></g><g><rect fill="#999999" height="22" width="22" x="34.99" y="32"/></g><g><rect fill="#999999" height="1" width="22" x="6.99" y="32"/></g><g><rect fill="#999999" height="1" width="22" x="6.99" y="35"/></g><g><rect fill="#999999" height="1" width="22" x="6.99" y="38"/></g><g><rect fill="#999999" height="1" width="22" x="6.99" y="41"/></g><g><rect fill="#999999" height="1" width="22" x="6.99" y="44"/></g><g><rect fill="#999999" height="1" width="22" x="6.99" y="47"/></g><g><rect fill="#999999" height="1" width="22" x="6.99" y="50"/></g><g><rect fill="#999999" height="1" width="22" x="6.99" y="53"/></g><g><rect fill="#A2DFE9" height="11" width="50" x="6.99" y="16"/></g></g></svg>